<?xml version="1.0" standalone="no"?>
<!DOCTYPE svg PUBLIC "-//W3C//DTD SVG 20010904//EN"
 "http://www.w3.org/TR/2001/REC-SVG-20010904/DTD/svg10.dtd">
<svg version="1.0" xmlns="http://www.w3.org/2000/svg"
 width="200.000000pt" height="200.000000pt" viewBox="0 0 200.000000 200.000000"
 preserveAspectRatio="xMidYMid meet">
<metadata>
Created by potrace 1.14, written by Peter Selinger 2001-2017
</metadata>
<g transform="translate(0.000000,200.000000) scale(0.100000,-0.100000)"
fill="#000000" stroke="none">
<path d="M145 1917 c-43 -24 -81 -82 -88 -132 -6 -43 18 -113 50 -148 87 -93
247 -70 301 43 38 81 1 195 -77 237 -59 31 -132 31 -186 0z"/>
<path d="M1377 1643 c-2 -2 -17 -5 -33 -8 -137 -18 -260 -130 -288 -260 -6
-27 1 -38 58 -100 66 -71 89 -109 39 -64 -42 38 -46 42 -77 79 -112 137 -232
248 -276 256 -3 0 -18 6 -35 13 -94 39 -304 47 -411 16 -145 -41 -263 -158
-298 -292 -17 -68 -15 -810 3 -873 41 -144 142 -249 301 -314 54 -22 213 -28
280 -11 96 25 193 97 229 170 26 53 27 73 22 520 l-2 140 -70 75 c-97 104
-153 170 -141 170 10 0 48 -40 202 -215 58 -65 119 -133 135 -150 80 -84 166
-177 225 -244 36 -41 80 -90 98 -110 18 -20 56 -64 84 -98 47 -58 122 -123
192 -167 42 -27 139 -30 193 -6 58 25 106 76 129 136 18 46 19 80 18 494 0
245 -4 461 -8 480 -11 57 -72 172 -118 221 -61 64 -152 114 -247 135 -32 7
-199 13 -204 7z m150 -375 c21 -15 37 -36 42 -58 13 -49 15 -470 2 -470 -5 0
-16 9 -24 20 -8 11 -30 37 -48 58 -19 20 -59 66 -88 102 -29 36 -73 86 -97
112 -24 26 -44 49 -44 52 0 15 113 187 128 195 30 18 94 12 129 -11z m-1006
-45 c4 -35 3 -767 -1 -772 -10 -15 -67 9 -80 35 -20 37 -21 678 -1 706 19 27
80 50 82 31z"/>
</g>
</svg>
